<?xml version="1.0" encoding="utf-8"?>
<!-- Uploaded to: SVG Repo, www.svgrepo.com, Generator: SVG Repo Mixer Tools -->
<svg width="20px" height="20px" viewBox="0 0 24 24" fill="none" xmlns="http://www.w3.org/2000/svg">
<path fill-rule="evenodd" clip-rule="evenodd" d="M7 11C7.82843 11 8.5 11.6716 8.5 12.5C8.5 13.3284 7.82843 14 7 14C6.17157 14 5.5 13.3284 5.5 12.5C5.5 11.6716 6.17157 11 7 11Z" fill="#929292"/>
<path fill-rule="evenodd" clip-rule="evenodd" d="M12 11C12.8284 11 13.5 11.6716 13.5 12.5C13.5 13.3284 12.8284 14 12 14C11.1716 14 10.5 13.3284 10.5 12.5C10.5 11.6716 11.1716 11 12 11Z" fill="#929292"/>
<path fill-rule="evenodd" clip-rule="evenodd" d="M17 11C17.8284 11 18.5 11.6716 18.5 12.5C18.5 13.3284 17.8284 14 17 14C16.1716 14 15.5 13.3284 15.5 12.5C15.5 11.6716 16.1716 11 17 11Z" fill="#929292"/>
</svg>