<?xml version="1.0" encoding="utf-8"?>
<!-- Uploaded to: SVG Repo, www.svgrepo.com, Generator: SVG Repo Mixer Tools -->
<svg width="20px" height="20px" viewBox="0 0 24 24" fill="none" xmlns="http://www.w3.org/2000/svg">
<path d="M16 3H4C3.44772 3 3 3.44772 3 4V16C3 16.5523 3.44772 17 4 17H16C16.5523 17 17 16.5523 17 16V4C17 3.44772 16.5523 3 16 3Z" stroke="#000000" stroke-width="1" stroke-linecap="round" stroke-linejoin="round"/>
<path d="M20 7H8C7.44772 7 7 7.44772 7 8V20C7 20.5523 7.44772 21 8 21H20C20.5523 21 21 20.5523 21 20V8C21 7.44772 20.5523 7 20 7Z" stroke="#000000" stroke-width="1" stroke-linecap="round" stroke-linejoin="round"/>
</svg>