<?xml version="1.0" encoding="utf-8"?>
<!-- Uploaded to: SVG Repo, www.svgrepo.com, Generator: SVG Repo Mixer Tools -->
<svg width="20px" height="20px" viewBox="0 0 24 24" fill="none" xmlns="http://www.w3.org/2000/svg">
<path fill-rule="evenodd" clip-rule="evenodd" d="M2.5 5.75C2.5 4.50736 3.50736 3.5 4.75 3.5H19.25C20.4926 3.5 21.5 4.50736 21.5 5.75V18.25C21.5 19.4926 20.4926 20.5 19.25 20.5H4.75C3.50736 20.5 2.5 19.4926 2.5 18.25V5.75ZM4.75 4.5C4.05964 4.5 3.5 5.05964 3.5 5.75V18.25C3.5 18.9404 4.05964 19.5 4.75 19.5H19.25C19.9404 19.5 20.5 18.9404 20.5 18.25V5.75C20.5 5.05964 19.9404 4.5 19.25 4.5H4.75Z" fill="#000000"/>
<path fill-rule="evenodd" clip-rule="evenodd" d="M5 6.25C5 6.11193 5.11193 6 5.25 6H18.75C18.8881 6 19 6.11193 19 6.25V9.75C19 9.88807 18.8881 10 18.75 10H5.25C5.11193 10 5 9.88807 5 9.75V6.25ZM6 7.5V8.5H18V7.5H6Z" fill="#000000"/>
<path fill-rule="evenodd" clip-rule="evenodd" d="M14 12.75C14 12.6119 14.1119 12.5 14.25 12.5H18.75C18.8881 12.5 19 12.6119 19 12.75V17.25C19 17.3881 18.8881 17.5 18.75 17.5H14.25C14.1119 17.5 14 17.3881 14 17.25V12.75ZM15 13.5V16.5H18V13.5H15Z" fill="#000000"/>
<path d="M5 13.25C5 13.1119 5.11193 13 5.25 13H11.75C11.8881 13 12 13.1119 12 13.25C12 13.3881 11.8881 13.5 11.75 13.5H5.25C5.11193 13.5 5 13.3881 5 13.25Z" fill="#000000"/>
<path d="M5.25 16C5.11193 16 5 16.1119 5 16.25C5 16.3881 5.11193 16.5 5.25 16.5H11.75C11.8881 16.5 12 16.3881 12 16.25C12 16.1119 11.8881 16 11.75 16H5.25Z" fill="#000000"/>
</svg>